<svg width="73" height="80" viewBox="0 0 73 80" fill="none" xmlns="http://www.w3.org/2000/svg">
<path d="M43.7231 32.3658H52.6966C53.6109 32.3644 54.4874 31.9997 55.1334 31.3518C55.7795 30.704 56.1424 29.8258 56.1424 28.9103V20.7693C56.1434 19.6046 56.6059 18.488 57.4282 17.6643C58.2506 16.8407 59.3657 16.3773 60.5288 16.3759H69.0502C69.9639 16.3752 70.8399 16.0115 71.486 15.3646C72.1321 14.7177 72.4953 13.8405 72.496 12.9257V3.44894C72.495 2.53432 72.1316 1.65747 71.4855 1.01086C70.8395 0.364241 69.9636 0.000690478 69.0502 0H58.3454C57.4321 0.00103575 56.5566 0.364738 55.9109 1.01132C55.2651 1.65789 54.9019 2.53454 54.9008 3.44894V11.5965C54.8995 12.7611 54.4367 13.8776 53.6141 14.7011C52.7915 15.5245 51.6763 15.9875 50.5131 15.9885H41.9904C41.0771 15.9899 40.2016 16.3539 39.5559 17.0007C38.9102 17.6475 38.547 18.5243 38.5459 19.4388V27.585C38.5445 28.7489 38.0825 29.8647 37.2611 30.6882C36.4397 31.5117 35.3258 31.9756 34.1634 31.9783H25.1847C24.2706 31.9794 23.3943 32.3438 22.7484 32.9915C22.1025 33.6392 21.7399 34.5172 21.7402 35.4325V44.908C21.7409 45.8226 22.104 46.6996 22.7498 47.3464C23.3956 47.9933 24.2713 48.3572 25.1847 48.3582H34.1634C35.3267 48.3596 36.4419 48.8229 37.2645 49.6465C38.087 50.4701 38.5498 51.5868 38.5511 52.7516V60.8978C38.5518 61.8124 38.9149 62.6894 39.5607 63.3363C40.2065 63.9831 41.0822 64.347 41.9956 64.348H50.5131C51.6764 64.3494 52.7916 64.8127 53.6142 65.6363C54.4368 66.46 54.8995 67.5766 54.9008 68.7414V76.5511C54.9019 77.4655 55.2651 78.3421 55.9109 78.9887C56.5566 79.6353 57.4321 79.999 58.3454 80H69.0502C69.9636 79.9993 70.8395 79.6358 71.4855 78.9892C72.1316 78.3425 72.495 77.4657 72.496 76.5511V67.0704C72.4953 66.1555 72.1321 65.2784 71.486 64.6315C70.8399 63.9846 69.9639 63.6208 69.0502 63.6202H60.5288C59.3657 63.6188 58.2506 63.1554 57.4282 62.3318C56.6059 61.5081 56.1434 60.3914 56.1424 59.2268V51.4171C56.141 50.5026 55.7775 49.6259 55.1315 48.9794C54.4856 48.3329 53.6099 47.9692 52.6966 47.9682H43.7231C42.5601 47.9664 41.4452 47.503 40.6229 46.6794C39.8006 45.8558 39.3381 44.7394 39.3367 43.5748V36.7578C39.3381 35.5934 39.8007 34.4771 40.623 33.6537C41.4453 32.8303 42.5602 32.3671 43.7231 32.3658Z" fill="white"/>
<path d="M12.7658 0H1.24284C0.556439 0 0 0.557153 0 1.24444V78.753C0 79.4403 0.556439 79.9975 1.24284 79.9975H12.7658C13.4522 79.9975 14.0087 79.4403 14.0087 78.753V1.24444C14.0087 0.557153 13.4522 0 12.7658 0Z" fill="white"/>
</svg>
